<svg width="126" height="19" viewBox="0 0 126 19" fill="none" xmlns="http://www.w3.org/2000/svg">
<path d="M0.113636 0.545454H2.19318V14.2841H2.36364L11.9091 0.545454H13.9545V18H11.8409V4.29545H11.6705L2.15909 18H0.113636V0.545454ZM31.2408 0.545454V18H29.1271V2.42045H20.3317V18H18.218V0.545454H31.2408ZM42.2543 0.545454H44.3338V14.2841H44.5043L54.0497 0.545454H56.0952V18H53.9815V4.29545H53.8111L44.2997 18H42.2543V0.545454ZM60.0518 18V4.90909H65.4041C66.8132 4.90909 67.9325 5.22727 68.7621 5.86364C69.5916 6.5 70.0064 7.34091 70.0064 8.38636C70.0064 9.18182 69.7706 9.7983 69.299 10.2358C68.8274 10.6676 68.2223 10.9602 67.4837 11.1136C67.9666 11.1818 68.4354 11.3523 68.8899 11.625C69.3501 11.8977 69.7308 12.2727 70.032 12.75C70.3331 13.2216 70.4837 13.8011 70.4837 14.4886C70.4837 15.1591 70.3132 15.7585 69.9723 16.2869C69.6314 16.8153 69.1428 17.233 68.5064 17.5398C67.87 17.8466 67.1087 18 66.2223 18H60.0518ZM61.9609 16.1591H66.2223C66.9155 16.1591 67.4581 15.9943 67.8501 15.6648C68.2422 15.3352 68.4382 14.8864 68.4382 14.3182C68.4382 13.642 68.2422 13.1108 67.8501 12.7244C67.4581 12.3324 66.9155 12.1364 66.2223 12.1364H61.9609V16.1591ZM61.9609 10.3977H65.4041C65.9439 10.3977 66.407 10.3239 66.7933 10.1761C67.1797 10.0227 67.4751 9.80682 67.6797 9.52841C67.8899 9.24432 67.995 8.90909 67.995 8.52273C67.995 7.97159 67.7649 7.53977 67.3047 7.22727C66.8445 6.90909 66.2109 6.75 65.4041 6.75H61.9609V10.3977ZM77.3807 18.3068C76.5511 18.3068 75.7983 18.1506 75.1222 17.8381C74.446 17.5199 73.9091 17.0625 73.5114 16.4659C73.1136 15.8636 72.9148 15.1364 72.9148 14.2841C72.9148 13.5341 73.0625 12.9261 73.358 12.4602C73.6534 11.9886 74.0483 11.6193 74.5426 11.3523C75.0369 11.0852 75.5824 10.8864 76.179 10.7557C76.7813 10.6193 77.3864 10.5114 77.9943 10.4318C78.7898 10.3295 79.4347 10.2528 79.929 10.2017C80.429 10.1449 80.7926 10.0511 81.0199 9.92045C81.2528 9.78977 81.3693 9.5625 81.3693 9.23864V9.17045C81.3693 8.32955 81.1392 7.67614 80.679 7.21023C80.2244 6.74432 79.5341 6.51136 78.608 6.51136C77.6477 6.51136 76.8949 6.72159 76.3494 7.14205C75.804 7.5625 75.4205 8.01136 75.1989 8.48864L73.2898 7.80682C73.6307 7.01136 74.0852 6.39205 74.6534 5.94886C75.2273 5.5 75.8523 5.1875 76.5284 5.01136C77.2102 4.82955 77.8807 4.73864 78.5398 4.73864C78.9602 4.73864 79.4432 4.78977 79.9886 4.89204C80.5398 4.98864 81.071 5.19034 81.5824 5.49716C82.0994 5.80398 82.5284 6.26705 82.8693 6.88636C83.2102 7.50568 83.3807 8.33523 83.3807 9.375V18H81.3693V16.2273H81.267C81.1307 16.5114 80.9034 16.8153 80.5852 17.1392C80.267 17.4631 79.8438 17.7386 79.3153 17.9659C78.7869 18.1932 78.142 18.3068 77.3807 18.3068ZM77.6875 16.5C78.483 16.5 79.1534 16.3438 79.6989 16.0312C80.25 15.7188 80.6648 15.3153 80.9432 14.821C81.2273 14.3267 81.3693 13.8068 81.3693 13.2614V11.4205C81.2841 11.5227 81.0966 11.6165 80.8068 11.7017C80.5227 11.7812 80.1932 11.8523 79.8182 11.9148C79.4489 11.9716 79.0881 12.0227 78.7358 12.0682C78.3892 12.108 78.108 12.142 77.892 12.1705C77.3693 12.2386 76.8807 12.3494 76.4261 12.5028C75.9773 12.6506 75.6136 12.875 75.3352 13.1761C75.0625 13.4716 74.9261 13.875 74.9261 14.3864C74.9261 15.0852 75.1847 15.6136 75.7017 15.9716C76.2244 16.3239 76.8864 16.5 77.6875 16.5ZM95.8132 10.5341V12.4091H88.5859V10.5341H95.8132ZM89.0632 4.90909V18H87.0518V4.90909H89.0632ZM97.3473 4.90909V18H95.3359V4.90909H97.3473ZM106.339 18.2727C105.157 18.2727 104.12 17.9915 103.228 17.429C102.342 16.8665 101.648 16.0795 101.148 15.0682C100.654 14.0568 100.407 12.875 100.407 11.5227C100.407 10.1591 100.654 8.96875 101.148 7.9517C101.648 6.93466 102.342 6.14489 103.228 5.58239C104.12 5.01989 105.157 4.73864 106.339 4.73864C107.521 4.73864 108.555 5.01989 109.441 5.58239C110.333 6.14489 111.026 6.93466 111.521 7.9517C112.021 8.96875 112.271 10.1591 112.271 11.5227C112.271 12.875 112.021 14.0568 111.521 15.0682C111.026 16.0795 110.333 16.8665 109.441 17.429C108.555 17.9915 107.521 18.2727 106.339 18.2727ZM106.339 16.4659C107.237 16.4659 107.975 16.2358 108.555 15.7756C109.134 15.3153 109.563 14.7102 109.842 13.9602C110.12 13.2102 110.259 12.3977 110.259 11.5227C110.259 10.6477 110.12 9.83239 109.842 9.0767C109.563 8.32102 109.134 7.71023 108.555 7.24432C107.975 6.77841 107.237 6.54545 106.339 6.54545C105.441 6.54545 104.702 6.77841 104.123 7.24432C103.543 7.71023 103.114 8.32102 102.836 9.0767C102.558 9.83239 102.418 10.6477 102.418 11.5227C102.418 12.3977 102.558 13.2102 102.836 13.9602C103.114 14.7102 103.543 15.3153 104.123 15.7756C104.702 16.2358 105.441 16.4659 106.339 16.4659ZM115.341 18V4.90909H120.693C122.102 4.90909 123.222 5.22727 124.051 5.86364C124.881 6.5 125.295 7.34091 125.295 8.38636C125.295 9.18182 125.06 9.7983 124.588 10.2358C124.116 10.6676 123.511 10.9602 122.773 11.1136C123.256 11.1818 123.724 11.3523 124.179 11.625C124.639 11.8977 125.02 12.2727 125.321 12.75C125.622 13.2216 125.773 13.8011 125.773 14.4886C125.773 15.1591 125.602 15.7585 125.261 16.2869C124.92 16.8153 124.432 17.233 123.795 17.5398C123.159 17.8466 122.398 18 121.511 18H115.341ZM117.25 16.1591H121.511C122.205 16.1591 122.747 15.9943 123.139 15.6648C123.531 15.3352 123.727 14.8864 123.727 14.3182C123.727 13.642 123.531 13.1108 123.139 12.7244C122.747 12.3324 122.205 12.1364 121.511 12.1364H117.25V16.1591ZM117.25 10.3977H120.693C121.233 10.3977 121.696 10.3239 122.082 10.1761C122.469 10.0227 122.764 9.80682 122.969 9.52841C123.179 9.24432 123.284 8.90909 123.284 8.52273C123.284 7.97159 123.054 7.53977 122.594 7.22727C122.134 6.90909 121.5 6.75 120.693 6.75H117.25V10.3977Z" fill="#656566"/>
</svg>
